<mxfile host="app.diagrams.net" modified="2024-04-27T21:50:06.190Z" agent="Mozilla/5.0 (Windows NT 10.0; Win64; x64) AppleWebKit/537.36 (KHTML, like Gecko) Chrome/124.0.0.0 Safari/537.36" etag="_ebvueIhte9epjOOE09_" version="24.0.7" type="device">
  <diagram name="PÃ¡gina-1" id="uM21lkvbxjjTEBkImaro">
    <mxGraphModel dx="1103" dy="568" grid="1" gridSize="10" guides="1" tooltips="1" connect="1" arrows="1" fold="1" page="1" pageScale="1" pageWidth="827" pageHeight="1169" math="0" shadow="0">
      <root>
        <mxCell id="0" />
        <mxCell id="1" parent="0" />
        <mxCell id="F_KY8QYOrY_a9esSQW3O-1" value="" style="rounded=1;whiteSpace=wrap;html=1;fillColor=#111119;strokeColor=#9673a6;" vertex="1" parent="1">
          <mxGeometry x="90" y="110" width="630" height="450" as="geometry" />
        </mxCell>
        <mxCell id="F_KY8QYOrY_a9esSQW3O-2" value="S1" style="image;html=1;image=img/lib/clip_art/networking/Router_Icon_128x128.png;fontSize=18;" vertex="1" parent="1">
          <mxGeometry x="280" y="220" width="50" height="50" as="geometry" />
        </mxCell>
        <mxCell id="F_KY8QYOrY_a9esSQW3O-3" value="S2" style="image;html=1;image=img/lib/clip_art/networking/Router_Icon_128x128.png;fontSize=18;" vertex="1" parent="1">
          <mxGeometry x="560" y="210" width="50" height="80" as="geometry" />
        </mxCell>
        <mxCell id="F_KY8QYOrY_a9esSQW3O-4" value="h1" style="image;aspect=fixed;perimeter=ellipsePerimeter;html=1;align=center;shadow=0;dashed=0;spacingTop=3;image=img/lib/active_directory/mainframe_host.svg;" vertex="1" parent="1">
          <mxGeometry x="140" y="340" width="36" height="50" as="geometry" />
        </mxCell>
        <mxCell id="F_KY8QYOrY_a9esSQW3O-5" value="h2" style="image;aspect=fixed;perimeter=ellipsePerimeter;html=1;align=center;shadow=0;dashed=0;spacingTop=3;image=img/lib/active_directory/mainframe_host.svg;" vertex="1" parent="1">
          <mxGeometry x="270" y="400" width="36" height="50" as="geometry" />
        </mxCell>
        <mxCell id="F_KY8QYOrY_a9esSQW3O-6" value="h3" style="image;aspect=fixed;perimeter=ellipsePerimeter;html=1;align=center;shadow=0;dashed=0;spacingTop=3;image=img/lib/active_directory/mainframe_host.svg;" vertex="1" parent="1">
          <mxGeometry x="396" y="340" width="36" height="50" as="geometry" />
        </mxCell>
        <mxCell id="F_KY8QYOrY_a9esSQW3O-10" value="h4" style="image;aspect=fixed;perimeter=ellipsePerimeter;html=1;align=center;shadow=0;dashed=0;spacingTop=3;image=img/lib/active_directory/mainframe_host.svg;" vertex="1" parent="1">
          <mxGeometry x="530" y="420" width="36" height="50" as="geometry" />
        </mxCell>
        <mxCell id="F_KY8QYOrY_a9esSQW3O-11" value="h5" style="image;aspect=fixed;perimeter=ellipsePerimeter;html=1;align=center;shadow=0;dashed=0;spacingTop=3;image=img/lib/active_directory/mainframe_host.svg;" vertex="1" parent="1">
          <mxGeometry x="670" y="350" width="36" height="50" as="geometry" />
        </mxCell>
        <mxCell id="F_KY8QYOrY_a9esSQW3O-12" value="" style="endArrow=classic;startArrow=classic;html=1;rounded=0;exitX=0.75;exitY=0;exitDx=0;exitDy=0;entryX=0;entryY=0;entryDx=0;entryDy=0;fontColor=#0DFA8B;strokeColor=#0DFA8B;" edge="1" parent="1" source="F_KY8QYOrY_a9esSQW3O-4" target="F_KY8QYOrY_a9esSQW3O-5">
          <mxGeometry width="50" height="50" relative="1" as="geometry">
            <mxPoint x="150" y="330" as="sourcePoint" />
            <mxPoint x="200" y="280" as="targetPoint" />
          </mxGeometry>
        </mxCell>
        <mxCell id="F_KY8QYOrY_a9esSQW3O-13" value="" style="endArrow=classic;startArrow=classic;html=1;rounded=0;exitX=0.75;exitY=0;exitDx=0;exitDy=0;entryX=0;entryY=0.25;entryDx=0;entryDy=0;labelBackgroundColor=#0DFA8B;strokeColor=#0DFA8B;" edge="1" parent="1" source="F_KY8QYOrY_a9esSQW3O-4" target="F_KY8QYOrY_a9esSQW3O-6">
          <mxGeometry width="50" height="50" relative="1" as="geometry">
            <mxPoint x="280" y="390" as="sourcePoint" />
            <mxPoint x="330" y="340" as="targetPoint" />
          </mxGeometry>
        </mxCell>
        <mxCell id="F_KY8QYOrY_a9esSQW3O-14" value="" style="endArrow=classic;startArrow=classic;html=1;rounded=0;exitX=1;exitY=0;exitDx=0;exitDy=0;entryX=0;entryY=0.75;entryDx=0;entryDy=0;fontColor=#0DFA8B;strokeColor=#0DFA8B;" edge="1" parent="1" source="F_KY8QYOrY_a9esSQW3O-5" target="F_KY8QYOrY_a9esSQW3O-6">
          <mxGeometry width="50" height="50" relative="1" as="geometry">
            <mxPoint x="340" y="450" as="sourcePoint" />
            <mxPoint x="390" y="400" as="targetPoint" />
          </mxGeometry>
        </mxCell>
        <mxCell id="F_KY8QYOrY_a9esSQW3O-15" value="" style="endArrow=classic;startArrow=classic;html=1;rounded=0;strokeColor=#0DFA8B;exitX=0;exitY=0.5;exitDx=0;exitDy=0;" edge="1" parent="1" source="F_KY8QYOrY_a9esSQW3O-11">
          <mxGeometry width="50" height="50" relative="1" as="geometry">
            <mxPoint x="580" y="400" as="sourcePoint" />
            <mxPoint x="430" y="360" as="targetPoint" />
            <Array as="points" />
          </mxGeometry>
        </mxCell>
        <mxCell id="F_KY8QYOrY_a9esSQW3O-16" value="" style="endArrow=classic;startArrow=classic;html=1;rounded=0;strokeColor=#0DFA8B;" edge="1" parent="1" source="F_KY8QYOrY_a9esSQW3O-10">
          <mxGeometry width="50" height="50" relative="1" as="geometry">
            <mxPoint x="380" y="410" as="sourcePoint" />
            <mxPoint x="430" y="360" as="targetPoint" />
          </mxGeometry>
        </mxCell>
        <mxCell id="F_KY8QYOrY_a9esSQW3O-17" value="" style="endArrow=classic;startArrow=classic;html=1;rounded=0;entryX=0.25;entryY=1;entryDx=0;entryDy=0;strokeColor=#0DFA8B;" edge="1" parent="1" source="F_KY8QYOrY_a9esSQW3O-10" target="F_KY8QYOrY_a9esSQW3O-11">
          <mxGeometry width="50" height="50" relative="1" as="geometry">
            <mxPoint x="380" y="410" as="sourcePoint" />
            <mxPoint x="430" y="360" as="targetPoint" />
            <Array as="points" />
          </mxGeometry>
        </mxCell>
        <mxCell id="F_KY8QYOrY_a9esSQW3O-19" value="" style="endArrow=classic;startArrow=classic;html=1;rounded=0;entryX=0;entryY=0.5;entryDx=0;entryDy=0;strokeColor=#66B2FF;" edge="1" parent="1" source="F_KY8QYOrY_a9esSQW3O-4" target="F_KY8QYOrY_a9esSQW3O-2">
          <mxGeometry width="50" height="50" relative="1" as="geometry">
            <mxPoint x="170" y="330" as="sourcePoint" />
            <mxPoint x="220" y="280" as="targetPoint" />
          </mxGeometry>
        </mxCell>
        <mxCell id="F_KY8QYOrY_a9esSQW3O-20" value="" style="endArrow=classic;startArrow=classic;html=1;rounded=0;exitX=0.5;exitY=0;exitDx=0;exitDy=0;entryX=0.25;entryY=1;entryDx=0;entryDy=0;strokeColor=#66B2FF;" edge="1" parent="1" source="F_KY8QYOrY_a9esSQW3O-5" target="F_KY8QYOrY_a9esSQW3O-2">
          <mxGeometry width="50" height="50" relative="1" as="geometry">
            <mxPoint x="250" y="440" as="sourcePoint" />
            <mxPoint x="300" y="390" as="targetPoint" />
          </mxGeometry>
        </mxCell>
        <mxCell id="F_KY8QYOrY_a9esSQW3O-21" value="" style="endArrow=classic;startArrow=classic;html=1;rounded=0;entryX=0;entryY=0;entryDx=0;entryDy=0;strokeColor=#66B2FF;" edge="1" parent="1" source="F_KY8QYOrY_a9esSQW3O-2" target="F_KY8QYOrY_a9esSQW3O-6">
          <mxGeometry width="50" height="50" relative="1" as="geometry">
            <mxPoint x="380" y="410" as="sourcePoint" />
            <mxPoint x="430" y="360" as="targetPoint" />
          </mxGeometry>
        </mxCell>
        <mxCell id="F_KY8QYOrY_a9esSQW3O-22" value="" style="endArrow=classic;startArrow=classic;html=1;rounded=0;strokeColor=#66B2FF;entryX=0;entryY=0.5;entryDx=0;entryDy=0;" edge="1" parent="1" source="F_KY8QYOrY_a9esSQW3O-6" target="F_KY8QYOrY_a9esSQW3O-3">
          <mxGeometry width="50" height="50" relative="1" as="geometry">
            <mxPoint x="450" y="330" as="sourcePoint" />
            <mxPoint x="500" y="280" as="targetPoint" />
          </mxGeometry>
        </mxCell>
        <mxCell id="F_KY8QYOrY_a9esSQW3O-23" value="" style="endArrow=classic;startArrow=classic;html=1;rounded=0;entryX=1;entryY=0.5;entryDx=0;entryDy=0;strokeColor=#66B2FF;" edge="1" parent="1" source="F_KY8QYOrY_a9esSQW3O-11" target="F_KY8QYOrY_a9esSQW3O-3">
          <mxGeometry width="50" height="50" relative="1" as="geometry">
            <mxPoint x="680" y="330" as="sourcePoint" />
            <mxPoint x="730" y="280" as="targetPoint" />
          </mxGeometry>
        </mxCell>
      </root>
    </mxGraphModel>
  </diagram>
</mxfile>
